<?xml version="1.0"?>
<svg xmlns="http://www.w3.org/2000/svg" viewBox="-26 0 511 511.99992" width="512px" height="512px"><g><path d="m230.445312 312c-5.519531 0-10 4.480469-10 10s4.480469 10 10 10c5.523438 0 10-4.480469 10-10s-4.476562-10-10-10zm0 0" data-original="#000000" class="active-path" data-old_color="#000000" fill="#8570BB"/><path d="m360.445312 472c33.085938 0 60-26.917969 60-60 0-33.085938-26.914062-60-60-60-33.082031 0-60 26.914062-60 60 0 33.082031 26.917969 60 60 60zm0-100c22.058594 0 40 17.945312 40 40s-17.941406 40-40 40c-22.054687 0-40-17.945312-40-40s17.945313-40 40-40zm0 0" data-original="#000000" class="active-path" data-old_color="#000000" fill="#8570BB"/><path d="m100.445312 352c-33.082031 0-60 26.914062-60 60 0 33.082031 26.917969 60 60 60 33.085938 0 60-26.917969 60-60 0-33.085938-26.914062-60-60-60zm0 100c-22.054687 0-40-17.945312-40-40s17.945313-40 40-40c22.058594 0 40 17.945312 40 40s-17.941406 40-40 40zm0 0" data-original="#000000" class="active-path" data-old_color="#000000" fill="#8570BB"/><path d="m142.804688 321.394531c-13.316407-6.234375-27.566407-9.394531-42.359376-9.394531-24.183593 0-47.527343 8.75-65.722656 24.636719-29.054687 25.347656-40.789062 64.714843-30.625 102.746093 11.617188 43.433594 50.832032 72.617188 96.359375 72.617188 55.027344-.007812 79.652344-36.890625 105.722657-75.941406 6.964843-10.429688 14.105468-21.128906 22.066406-31.539063 56.089844 78.652344 81.835937 107.410157 129.617187 107.402344 48.671875 0 91.8125-33.640625 100.714844-80.339844 6.609375-34.671875-4.730469-69.472656-30.339844-93.09375-18.515625-17.082031-42.589843-26.488281-67.792969-26.488281-14.71875 0-28.910156 3.128906-42.183593 9.308594-9.332031 4.347656-19.632813 3.222656-26.777344-2.5l137.585937-185.644532c.023438-.03125.042969-.0625.066407-.09375 27.25-37.65625 28.4375-88.414062 2.449219-127.390624-.355469-.355469-2.671876-5.453126-8.777344-5.6718755-3.21875-.1132815-6.285156 1.3164065-8.257813 3.8554685l-184.246093 237.121094-183.957032-237.113281c-1.972656-2.542969-5.039062-3.972656-8.261718-3.8632815-3.214844.1132815-6.179688 1.7695315-7.960938 4.4453125-25.933594 38.921875-25.101562 90.507813 3.480469 128.761719 56.484375 75.636718 99.855469 136.5625 135 186.53125-7.082031 5.015625-16.882813 5.824218-25.800781 1.648437zm46.742187 103.558594c-25.007813 37.453125-44.761719 67.039063-89.089844 67.046875-36.835937 0-67.796875-23.222656-77.039062-57.78125-8.179688-30.605469 1.191406-62.222656 24.453125-82.515625 14.558594-12.707031 33.226562-19.703125 52.574218-19.703125 11.839844 0 23.242188 2.527344 33.878907 7.507812 15.601562 7.304688 32.960937 5.707032 45.785156-3.371093 22.875 32.632812 29.15625 41.578125 36.058594 51.355469-9.917969 12.453124-18.394531 25.136718-26.621094 37.460937zm137.15625-85.515625c10.605469-4.9375 21.957031-7.4375 33.742187-7.4375 20.160157 0 39.417969 7.523438 54.230469 21.1875 20.496094 18.90625 29.5625 46.8125 24.257813 74.648438-7.109375 37.269531-41.804688 64.089843-81.03125 64.085937-38.804688 0-59.761719-23.253906-121.015625-109.773437 0 0 0 0-.003907-.003907-10.046874-14.175781-22.050781-31.320312-39.324218-55.960937-6.433594-10.515625-3.886719-25.835938 5.957031-35.683594.71875-.71875 1.363281-1.539062 1.628906-1.847656 11.582031-8.515625 28.542969-7.675782 38.300781 1.90625 2.238282 2.882812-9.226562-11.894532 28.417969 36.628906 12.585938 16.398438 35.136719 21.433594 54.839844 12.25zm94.542969-311.597656c14.367187 29.925781 11.511718 66.078125-8.277344 93.460937l-134.613281 181.628907-35.398438-45.632813zm-381.464844.195312 182.113281 234.738282c-13.945312.414062-26.527343 6.585937-32.640625 13.707031-5.792968 5.832031-9.988281 12.765625-12.5 20.097656-33.726562-47.832031-74.8125-105.285156-127.125-175.332031-20.863281-27.929688-23.355468-63.890625-9.847656-93.210938zm0 0" data-original="#000000" class="active-path" data-old_color="#000000" fill="#8570BB"/><path d="m248.734375 345.773438c-4.480469 3.230468-5.488281 9.480468-2.253906 13.960937l20.769531 28.769531c3.226562 4.46875 9.480469 5.488282 13.960938 2.253906 4.476562-3.234374 5.488281-9.484374 2.253906-13.960937l-20.769532-28.769531c-3.230468-4.476563-9.484374-5.488282-13.960937-2.253906zm0 0" data-original="#000000" class="active-path" data-old_color="#000000" fill="#8570BB"/></g> </svg>
