<?xml version="1.0"?>
<svg xmlns="http://www.w3.org/2000/svg" viewBox="-26 0 512 512" width="512px" height="512px"><g><path d="m50 412c-5.519531 0-10 4.480469-10 10s4.480469 10 10 10 10-4.480469 10-10-4.480469-10-10-10zm0 0" data-original="#000000" class="active-path" data-old_color="#000000" fill="#8570BB"/><path d="m70 120c16.820312 0 30-17.570312 30-40s-13.179688-40-30-40-30 17.570312-30 40 13.179688 40 30 40zm0-60c4.078125 0 10 7.789062 10 20s-5.921875 20-10 20-10-7.789062-10-20 5.921875-20 10-20zm0 0" data-original="#000000" class="active-path" data-old_color="#000000" fill="#8570BB"/><path d="m0 458.921875c0 27.914063 20.679688 53.078125 50 53.078125h300c38.597656 0 70-31.402344 70-70v-20c0-5.523438-4.476562-10-10-10h-30v-252h10c38.597656 0 70-35.886719 70-80s-31.402344-80-70-80h-320c-38.597656 0-70 35.886719-70 80zm400-16.921875c0 27.570312-22.429688 50-50 50h-260.023438c6.289063-8.363281 10.023438-18.753906 10.023438-30v-30h300zm-10-422c27.570312 0 50 26.914062 50 60s-22.429688 60-50 60h-273.773438c14.5625-14.671875 23.773438-36.121094 23.773438-60s-9.210938-45.328125-23.773438-60zm-320 0c27.570312 0 50 26.914062 50 60s-22.429688 60-50 60-50-26.914062-50-60 22.429688-60 50-60zm0 140h290v60h-30c-5.523438 0-10 4.476562-10 10s4.476562 10 10 10h30v172h-270c-5.523438 0-10 4.476562-10 10v40c0 16.542969-13.457031 30-30 30-17.804688 0-30-16.160156-30-33.078125v-218.921875h30c5.523438 0 10-4.476562 10-10s-4.476562-10-10-10h-30v-84.089844c12.714844 14.851563 30.429688 24.089844 50 24.089844zm0 0" data-original="#000000" class="active-path" data-old_color="#000000" fill="#8570BB"/><path d="m90 240h40c5.523438 0 10-4.476562 10-10s-4.476562-10-10-10h-40c-5.523438 0-10 4.476562-10 10s4.476562 10 10 10zm0 0" data-original="#000000" class="active-path" data-old_color="#000000" fill="#8570BB"/><path d="m170 240h40c5.523438 0 10-4.476562 10-10s-4.476562-10-10-10h-40c-5.523438 0-10 4.476562-10 10s4.476562 10 10 10zm0 0" data-original="#000000" class="active-path" data-old_color="#000000" fill="#8570BB"/><path d="m250 240h40c5.523438 0 10-4.476562 10-10s-4.476562-10-10-10h-40c-5.523438 0-10 4.476562-10 10s4.476562 10 10 10zm0 0" data-original="#000000" class="active-path" data-old_color="#000000" fill="#8570BB"/><path d="m50 280c-5.523438 0-10 4.476562-10 10v92c0 5.523438 4.476562 10 10 10s10-4.476562 10-10v-92c0-5.523438-4.476562-10-10-10zm0 0" data-original="#000000" class="active-path" data-old_color="#000000" fill="#8570BB"/></g> </svg>
