<?xml version="1.0"?>
<svg xmlns="http://www.w3.org/2000/svg" viewBox="0 0 512 512" width="512px" height="512px"><g><path d="m336 272c5.519531 0 10-4.480469 10-10s-4.480469-10-10-10-10 4.480469-10 10 4.480469 10 10 10zm0 0" data-original="#000000" class="active-path" data-old_color="#000000" fill="#91AEA4"/><path d="m462 192h-26v-62c0-16.542969-13.457031-30-30-30h-20v-1.71875c0-7.964844-3.214844-15.636719-8.789062-21.214844l-68.277344-68.277344c-5.46875-5.464843-13.105469-8.789062-21.214844-8.789062h-131.71875c-16.542969 0-30 13.457031-30 30v70h-20c-16.542969 0-30 13.457031-30 30v62h-26c-27.570312 0-50 22.429688-50 50v140c0 27.570312 22.429688 50 50 50h76v70c0 5.523438 4.476562 10 10 10h240c5.523438 0 10-4.476562 10-10v-70h76c27.570312 0 50-22.429688 50-50v-140c0-27.570312-22.429688-50-50-50zm-56-72c5.515625 0 10 4.484375 10 10v62h-30v-72zm-54.144531-40h-45.855469v-45.855469zm-205.855469-50c0-5.515625 4.484375-10 10-10h130v70c0 5.523438 4.476562 10 10 10h70v92h-220zm-50 100c0-5.515625 4.484375-10 10-10h20v72h-30zm-46 82h412c16.542969 0 30 13.457031 30 30v70h-472v-70c0-16.542969 13.457031-30 30-30zm46 200v-30c0-5.515625 4.484375-10 10-10h20v40zm270 80h-220v-120h220zm20-120h20c5.515625 0 10 4.484375 10 10v30h-30zm76 40h-26v-30c0-16.542969-13.457031-30-30-30h-300c-16.542969 0-30 13.457031-30 30v30h-26c-16.542969 0-30-13.457031-30-30v-50h472v50c0 16.542969-13.457031 30-30 30zm0 0" data-original="#000000" class="active-path" data-old_color="#000000" fill="#91AEA4"/><path d="m96 292c16.542969 0 30-13.457031 30-30s-13.457031-30-30-30-30 13.457031-30 30 13.457031 30 30 30zm0-40c5.515625 0 10 4.484375 10 10s-4.484375 10-10 10-10-4.484375-10-10 4.484375-10 10-10zm0 0" data-original="#000000" class="active-path" data-old_color="#000000" fill="#91AEA4"/><path d="m176 292c16.542969 0 30-13.457031 30-30s-13.457031-30-30-30-30 13.457031-30 30 13.457031 30 30 30zm0-40c5.515625 0 10 4.484375 10 10s-4.484375 10-10 10-10-4.484375-10-10 4.484375-10 10-10zm0 0" data-original="#000000" class="active-path" data-old_color="#000000" fill="#91AEA4"/><path d="m376 272h60c5.523438 0 10-4.476562 10-10s-4.476562-10-10-10h-60c-5.523438 0-10 4.476562-10 10s4.476562 10 10 10zm0 0" data-original="#000000" class="active-path" data-old_color="#000000" fill="#91AEA4"/><path d="m316 442h-120c-5.523438 0-10 4.476562-10 10s4.476562 10 10 10h120c5.523438 0 10-4.476562 10-10s-4.476562-10-10-10zm0 0" data-original="#000000" class="active-path" data-old_color="#000000" fill="#91AEA4"/><path d="m316 402h-120c-5.523438 0-10 4.476562-10 10s4.476562 10 10 10h120c5.523438 0 10-4.476562 10-10s-4.476562-10-10-10zm0 0" data-original="#000000" class="active-path" data-old_color="#000000" fill="#91AEA4"/></g> </svg>
