<?xml version="1.0"?>
<svg xmlns="http://www.w3.org/2000/svg" viewBox="0 0 512 512" width="512px" height="512px"><g><path d="m462 452c-5.519531 0-10 4.480469-10 10s4.480469 10 10 10 10-4.480469 10-10-4.480469-10-10-10zm0 0" data-original="#000000" class="active-path" data-old_color="#000000" fill="#FFA38F"/><path d="m130 60c5.519531 0 10-4.480469 10-10s-4.480469-10-10-10-10 4.480469-10 10 4.480469 10 10 10zm0 0" data-original="#000000" class="active-path" data-old_color="#000000" fill="#FFA38F"/><path d="m502 332h-194.71875c16.644531-16.648438 136.175781-136.183594 156.058594-156.070312 3.90625-3.902344 3.90625-10.234376 0-14.140626l-113.128906-113.128906c-3.902344-3.90625-10.234376-3.90625-14.140626 0-19.929687 19.929688-139.382812 139.371094-156.070312 156.058594v-194.71875c0-5.523438-4.476562-10-10-10h-160c-5.523438 0-10 4.476562-10 10v412c0 49.625 40.375 90 90 90h412c5.523438 0 10-4.476562 10-10v-160c0-5.523438-4.476562-10-10-10zm-243.71875-177.273438 98.992188 98.992188-70.707032 70.707031-98.992187-98.996093zm-98.28125 97.273438h-140v-106h140zm-140 20h140v100h-140zm160 150v-175.855469l92.425781 92.425781-92.929687 92.933594c.324218-3.140625.503906-6.308594.503906-9.503906zm80-42.71875 27.28125-27.28125h78.71875v140h-106zm83.140625-309.410156 98.988281 98.988281-70.710937 70.714844-98.992188-98.992188zm-183.140625-49.871094v106h-140v-66h70c5.523438 0 10-4.476562 10-10s-4.476562-10-10-10h-70v-20zm-140 402v-30h140v30c0 38.648438-31.324219 70-70 70-38.597656 0-70-31.402344-70-70zm220-22.71875v92.71875h-93.433594c7.484375-6.066406 9.664063-9.183594 93.433594-92.71875zm252 92.71875h-106v-140h66v70c0 5.523438 4.476562 10 10 10s10-4.476562 10-10v-70h20zm0 0" data-original="#000000" class="active-path" data-old_color="#000000" fill="#FFA38F"/><path d="m120 442c0-16.542969-13.457031-30-30-30s-30 13.457031-30 30 13.457031 30 30 30 30-13.457031 30-30zm-40 0c0-5.515625 4.484375-10 10-10s10 4.484375 10 10-4.484375 10-10 10-10-4.484375-10-10zm0 0" data-original="#000000" class="active-path" data-old_color="#000000" fill="#FFA38F"/></g> </svg>
