<?xml version="1.0"?>
<svg xmlns="http://www.w3.org/2000/svg" viewBox="0 -56 512 512" width="512px" height="512px"><g><path d="m246 40c-5.519531 0-10 4.480469-10 10s4.480469 10 10 10 10-4.480469 10-10-4.480469-10-10-10zm0 0" data-original="#000000" class="active-path" data-old_color="#000000" fill="#FFA38F"/><path d="m482 80h-48.191406l-14.320313-57.28125c-3.351562-13.375-15.320312-22.71875-29.109375-22.71875h-168.757812c-13.789063 0-25.757813 9.34375-29.113282 22.726562l-14.316406 57.273438h-38.191406v-10c0-16.542969-13.457031-30-30-30h-40c-16.542969 0-30 13.457031-30 30v10h-10c-16.542969 0-30 13.457031-30 30v260c0 16.542969 13.457031 30 30 30h452c16.542969 0 30-13.457031 30-30v-260c0-16.542969-13.457031-30-30-30zm-270.089844-52.417969c1.117188-4.464843 5.109375-7.582031 9.710938-7.582031h168.757812c4.601563 0 8.59375 3.117188 9.710938 7.574219l13.101562 52.425781h-214.382812zm-151.910156 42.417969c0-5.515625 4.484375-10 10-10h40c5.515625 0 10 4.484375 10 10v10h-60zm-40 210h30c5.523438 0 10-4.476562 10-10s-4.476562-10-10-10h-30v-40h30c5.523438 0 10-4.476562 10-10s-4.476562-10-10-10h-30v-40h70c5.515625 0 10 4.484375 10 10v140c0 5.515625-4.484375 10-10 10h-70zm472 90c0 5.515625-4.484375 10-10 10h-452c-5.515625 0-10-4.484375-10-10v-30h70c16.542969 0 30-13.457031 30-30v-140c0-16.542969-13.457031-30-30-30h-70v-30c0-5.515625 4.484375-10 10-10h452c5.515625 0 10 4.484375 10 10zm0 0" data-original="#000000" class="active-path" data-old_color="#000000" fill="#FFA38F"/><path d="m306 120c-66.167969 0-120 53.832031-120 120s53.832031 120 120 120 120-53.832031 120-120-53.832031-120-120-120zm0 220c-55.140625 0-100-44.859375-100-100s44.859375-100 100-100 100 44.859375 100 100-44.859375 100-100 100zm0 0" data-original="#000000" class="active-path" data-old_color="#000000" fill="#FFA38F"/><path d="m306 160c-44.113281 0-80 35.886719-80 80s35.886719 80 80 80 80-35.886719 80-80-35.886719-80-80-80zm0 140c-33.085938 0-60-26.914062-60-60s26.914062-60 60-60 60 26.914062 60 60-26.914062 60-60 60zm0 0" data-original="#000000" class="active-path" data-old_color="#000000" fill="#FFA38F"/><path d="m306 200c-22.054688 0-40 17.945312-40 40 0 5.523438 4.476562 10 10 10s10-4.476562 10-10c0-11.027344 8.972656-20 20-20 5.523438 0 10-4.476562 10-10s-4.476562-10-10-10zm0 0" data-original="#000000" class="active-path" data-old_color="#000000" fill="#FFA38F"/><path d="m366 40h-80c-5.523438 0-10 4.476562-10 10s4.476562 10 10 10h80c5.523438 0 10-4.476562 10-10s-4.476562-10-10-10zm0 0" data-original="#000000" class="active-path" data-old_color="#000000" fill="#FFA38F"/><path d="m462 120h-46c-5.523438 0-10 4.476562-10 10s4.476562 10 10 10h46c5.523438 0 10-4.476562 10-10s-4.476562-10-10-10zm0 0" data-original="#000000" class="active-path" data-old_color="#000000" fill="#FFA38F"/></g> </svg>
