<?xml version="1.0"?>
<svg xmlns="http://www.w3.org/2000/svg" viewBox="0 0 512 512.00035" width="512px" height="512px"><g><path d="m335.996094 385.996094c-5.519532 0-10 4.480468-10 10 0 5.519531 4.480468 10 10 10 5.519531 0 10-4.480469 10-10 0-5.519532-4.480469-10-10-10zm0 0" data-original="#000000" class="active-path" data-old_color="#000000" fill="#8570BB"/><path d="m10 165.996094h96v109.828125.03125.140625c0 .019531.003906.042968.003906.0625.015625 2.679687 1.113282 5.367187 3.273438 7.332031.054687.046875.105468.101563.160156.152344 4.71875 4.101562 257.699219 224 259.996094 225.996093 6.425781 5.585938 16.5625 1.058594 16.5625-7.546874v-222.824219c0-2.917969-1.273438-5.691407-3.484375-7.589844l-42.511719-36.492187 169.894531-218.957032c2.339844-3.015625 2.757813-7.101562 1.078125-10.527344-1.675781-3.429687-5.160156-5.601562-8.976562-5.601562h-186c-3.046875 0-6.074219 1.441406-7.992188 3.988281l-93.15625 123.902344-92.304687-79.457031c-.007813-.003906-.011719-.007813-.015625-.011719l-.003906-.003906c-.003907 0-.003907 0-.007813-.003907-3.832031-3.300781-9.644531-3.207031-13.378906.3125l-106 99.996094c-2.980469 2.8125-3.941407 7.15625-2.429688 10.96875 1.511719 3.804688 5.195313 6.304688 9.292969 6.304688zm297.242188-127.714844 8.4375 189.800781-176.179688 33.296875c8.964844-11.921875 158.480469-210.777344 167.742188-223.097656zm-85.648438 316.246094-83.457031-72.539063 164.164062-31.023437zm144.402344 125.523437-129.285156-112.386719 90.996093-116.769531 38.289063 32.867188zm-31.140625-270.957031-8.40625-189.09375h155.128906zm-208.855469-131.292969 76.800781 66.109375-76.800781 102.144532zm-20 1.378907v66.816406h-70.828125zm0 0" data-original="#000000" class="active-path" data-old_color="#000000" fill="#8570BB"/><path d="m325.996094 295.996094v60c0 5.519531 4.476562 10 10 10 5.523437 0 10-4.480469 10-10v-60c0-5.523438-4.476563-10-10-10-5.523438 0-10 4.476562-10 10zm0 0" data-original="#000000" class="active-path" data-old_color="#000000" fill="#8570BB"/></g> </svg>
